<?xml version="1.0" encoding="utf-8"?>
<!-- Generator: Adobe Illustrator 22.1.0, SVG Export Plug-In . SVG Version: 6.00 Build 0)  -->
<svg version="1.1" id="Layer_1" xmlns="http://www.w3.org/2000/svg" xmlns:xlink="http://www.w3.org/1999/xlink" x="0px" y="0px"
	 viewBox="0 0 1920 1080" style="enable-background:new 0 0 1920 1080;" xml:space="preserve">
<style type="text/css">
	.st0{fill:#7C7C7C;}
</style>
<g>
	<g>
		<rect x="157.5" y="65" class="st0" width="5" height="50"/>
		<rect x="157.5" y="65" transform="matrix(4.492946e-11 -1 1 4.492946e-11 70 250)" class="st0" width="5" height="50"/>
	</g>
	<g>
		<rect x="557.5" y="65" class="st0" width="5" height="50"/>
		<rect x="557.5" y="65" transform="matrix(4.492946e-11 -1 1 4.492946e-11 470 650)" class="st0" width="5" height="50"/>
	</g>
	<g>
		<rect x="957.5" y="65" class="st0" width="5" height="50"/>
		<rect x="957.5" y="65" transform="matrix(4.511064e-11 -1 1 4.511064e-11 870 1050)" class="st0" width="5" height="50"/>
	</g>
	<g>
		<rect x="1357.5" y="65" class="st0" width="5" height="50"/>
		<rect x="1357.5" y="65" transform="matrix(4.511064e-11 -1 1 4.511064e-11 1270 1450)" class="st0" width="5" height="50"/>
	</g>
	<g>
		<rect x="1757.5" y="65" class="st0" width="5" height="50"/>
		<rect x="1757.5" y="65" transform="matrix(4.511064e-11 -1 1 4.511064e-11 1670 1850)" class="st0" width="5" height="50"/>
	</g>
	<g>
		<rect x="157.5" y="365" class="st0" width="5" height="50"/>
		<rect x="157.5" y="365" transform="matrix(4.492946e-11 -1 1 4.492946e-11 -230 550)" class="st0" width="5" height="50"/>
	</g>
	<g>
		<rect x="557.5" y="365" class="st0" width="5" height="50"/>
		<rect x="557.5" y="365" transform="matrix(4.492946e-11 -1 1 4.492946e-11 170 950)" class="st0" width="5" height="50"/>
	</g>
	<g>
		<rect x="957.5" y="365" class="st0" width="5" height="50"/>
		<rect x="957.5" y="365" transform="matrix(4.511064e-11 -1 1 4.511064e-11 570 1350)" class="st0" width="5" height="50"/>
	</g>
	<g>
		<rect x="1357.5" y="365" class="st0" width="5" height="50"/>
		<rect x="1357.5" y="365" transform="matrix(4.511064e-11 -1 1 4.511064e-11 970 1750)" class="st0" width="5" height="50"/>
	</g>
	<g>
		<rect x="1757.5" y="365" class="st0" width="5" height="50"/>
		<rect x="1757.5" y="365" transform="matrix(4.511064e-11 -1 1 4.511064e-11 1370 2150)" class="st0" width="5" height="50"/>
	</g>
	<g>
		<rect x="157.5" y="665" class="st0" width="5" height="50"/>
		<rect x="157.5" y="665" transform="matrix(4.492946e-11 -1 1 4.492946e-11 -530 850)" class="st0" width="5" height="50"/>
	</g>
	<g>
		<rect x="557.5" y="665" class="st0" width="5" height="50"/>
		<rect x="557.5" y="665" transform="matrix(4.492946e-11 -1 1 4.492946e-11 -130 1250)" class="st0" width="5" height="50"/>
	</g>
	<g>
		<rect x="957.5" y="665" class="st0" width="5" height="50"/>
		<rect x="957.5" y="665" transform="matrix(4.511064e-11 -1 1 4.511064e-11 270 1650)" class="st0" width="5" height="50"/>
	</g>
	<g>
		<rect x="1357.5" y="665" class="st0" width="5" height="50"/>
		<rect x="1357.5" y="665" transform="matrix(4.511064e-11 -1 1 4.511064e-11 670 2050)" class="st0" width="5" height="50"/>
	</g>
	<g>
		<rect x="1757.5" y="665" class="st0" width="5" height="50"/>
		<rect x="1757.5" y="665" transform="matrix(4.511064e-11 -1 1 4.511064e-11 1070 2450)" class="st0" width="5" height="50"/>
	</g>
	<g>
		<rect x="157.5" y="965" class="st0" width="5" height="50"/>
		<rect x="157.5" y="965" transform="matrix(4.492946e-11 -1 1 4.492946e-11 -830 1150)" class="st0" width="5" height="50"/>
	</g>
	<g>
		<rect x="557.5" y="965" class="st0" width="5" height="50"/>
		<rect x="557.5" y="965" transform="matrix(4.492946e-11 -1 1 4.492946e-11 -430 1550)" class="st0" width="5" height="50"/>
	</g>
	<g>
		<rect x="957.5" y="965" class="st0" width="5" height="50"/>
		<rect x="957.5" y="965" transform="matrix(4.511064e-11 -1 1 4.511064e-11 -30 1950)" class="st0" width="5" height="50"/>
	</g>
	<g>
		<rect x="1357.5" y="965" class="st0" width="5" height="50"/>
		<rect x="1357.5" y="965" transform="matrix(4.511064e-11 -1 1 4.511064e-11 370 2350)" class="st0" width="5" height="50"/>
	</g>
	<g>
		<rect x="1757.5" y="965" class="st0" width="5" height="50"/>
		<rect x="1757.5" y="965" transform="matrix(4.511064e-11 -1 1 4.511064e-11 770 2750)" class="st0" width="5" height="50"/>
	</g>
</g>
</svg>
