<?xml version="1.0" encoding="utf-8"?>
<!-- Generator: Adobe Illustrator 22.1.0, SVG Export Plug-In . SVG Version: 6.00 Build 0)  -->
<svg version="1.1" xmlns="http://www.w3.org/2000/svg" xmlns:xlink="http://www.w3.org/1999/xlink" x="0px" y="0px"
	 viewBox="0 0 1920 1080" style="enable-background:new 0 0 1920 1080;" xml:space="preserve">
<style type="text/css">
	.st0{display:none;}
	.st1{display:inline;}
	.st2{fill:#00A1BC;}
	.st3{fill:#FF0000;}
	.st4{fill:#6B6B6B;}
</style>
<g id="numbers" class="st0">
	<g class="st1">
		<g>
			<g>
				<path class="st2" d="M273.6,174.2V161h1.6v7.5h1.6v3.8h-1.6v1.9H273.6z M275.2,161v-1.9h4.8v1.9H275.2z M275.2,176v-1.9h4.8v1.9
					H275.2z M276.7,168.5v-1.9h1.6v1.9H276.7z M279.9,174.2v-7.5h-1.6v-3.8h1.6V161h1.6v13.1H279.9z"/>
				<path class="st2" d="M283.4,176v-7.5h1.6v-5.6h1.6v5.6h1.6v-5.6h1.6v5.6h1.6v7.5h-1.6v-5.6H285v5.6H283.4z M286.6,162.9v-3.8
					h1.6v3.8H286.6z"/>
				<path class="st2" d="M294.8,176v-15h-1.6v-1.9h3.2V176H294.8z"/>
			</g>
		</g>
		<g>
			<path class="st2" d="M969.6,174.2V161h1.6v7.5h1.6v3.8h-1.6v1.9H969.6z M971.2,161v-1.9h4.8v1.9H971.2z M971.2,176v-1.9h4.8v1.9
				H971.2z M972.7,168.5v-1.9h1.6v1.9H972.7z M975.9,174.2v-7.5h-1.6v-3.8h1.6V161h1.6v13.1H975.9z"/>
			<path class="st2" d="M979.4,176v-7.5h1.6v-5.6h1.6v5.6h1.6v-5.6h1.6v5.6h1.6v7.5h-1.6v-5.6H981v5.6H979.4z M982.6,162.9v-3.8h1.6
				v3.8H982.6z"/>
			<path class="st2" d="M989.2,161v-1.9h6.4v1.9H989.2z M989.2,176v-1.9h6.4v1.9H989.2z M990.8,168.5v-1.9h4.8v1.9H990.8z
				 M995.6,166.7V161h1.6v5.6H995.6z M995.6,174.2v-5.6h1.6v5.6H995.6z"/>
		</g>
		<g>
			<path class="st2" d="M1665.6,174.2V161h1.6v7.5h1.6v3.8h-1.6v1.9H1665.6z M1667.2,161v-1.9h4.8v1.9H1667.2z M1667.2,176v-1.9h4.8
				v1.9H1667.2z M1668.7,168.5v-1.9h1.6v1.9H1668.7z M1671.9,174.2v-7.5h-1.6v-3.8h1.6V161h1.6v13.1H1671.9z"/>
			<path class="st2" d="M1675.4,176v-7.5h1.6v-5.6h1.6v5.6h1.6v-5.6h1.6v5.6h1.6v7.5h-1.6v-5.6h-4.8v5.6H1675.4z M1678.6,162.9v-3.8
				h1.6v3.8H1678.6z"/>
			<path class="st2" d="M1685.2,168.5v-9.4h7.9v1.9h-6.3v5.6h4.8v1.9H1685.2z M1685.2,176v-1.9h6.4v1.9H1685.2z M1691.6,174.2v-5.6
				h1.6v5.6H1691.6z"/>
		</g>
		<g>
			<path class="st2" d="M273.6,522.2V509h1.6v7.5h1.6v3.8h-1.6v1.9H273.6z M275.2,509v-1.9h4.8v1.9H275.2z M275.2,524v-1.9h4.8v1.9
				H275.2z M276.7,516.5v-1.9h1.6v1.9H276.7z M279.9,522.2v-7.5h-1.6v-3.8h1.6V509h1.6v13.1H279.9z"/>
			<path class="st2" d="M283.4,524v-16.9h6.4v1.9H285v5.6h4.8v1.9H285v5.6h4.8v1.9H283.4z M289.7,514.7V509h1.6v5.6H289.7z
				 M289.7,522.2v-5.6h1.6v5.6H289.7z"/>
			<path class="st2" d="M294.8,524v-15h-1.6v-1.9h3.2V524H294.8z"/>
		</g>
		<g>
			<path class="st2" d="M969.6,522.2V509h1.6v7.5h1.6v3.8h-1.6v1.9H969.6z M971.2,509v-1.9h4.8v1.9H971.2z M971.2,524v-1.9h4.8v1.9
				H971.2z M972.7,516.5v-1.9h1.6v1.9H972.7z M975.9,522.2v-7.5h-1.6v-3.8h1.6V509h1.6v13.1H975.9z"/>
			<path class="st2" d="M979.4,524v-16.9h6.4v1.9H981v5.6h4.8v1.9H981v5.6h4.8v1.9H979.4z M985.7,514.7V509h1.6v5.6H985.7z
				 M985.7,522.2v-5.6h1.6v5.6H985.7z"/>
			<path class="st2" d="M989.2,509v-1.9h6.4v1.9H989.2z M989.2,524v-1.9h6.4v1.9H989.2z M990.8,516.5v-1.9h4.8v1.9H990.8z
				 M995.6,514.7V509h1.6v5.6H995.6z M995.6,522.2v-5.6h1.6v5.6H995.6z"/>
		</g>
		<g>
			<path class="st2" d="M1665.6,522.2V509h1.6v7.5h1.6v3.8h-1.6v1.9H1665.6z M1667.2,509v-1.9h4.8v1.9H1667.2z M1667.2,524v-1.9h4.8
				v1.9H1667.2z M1668.7,516.5v-1.9h1.6v1.9H1668.7z M1671.9,522.2v-7.5h-1.6v-3.8h1.6V509h1.6v13.1H1671.9z"/>
			<path class="st2" d="M1675.4,524v-16.9h6.4v1.9h-4.8v5.6h4.8v1.9h-4.8v5.6h4.8v1.9H1675.4z M1681.7,514.7V509h1.6v5.6H1681.7z
				 M1681.7,522.2v-5.6h1.6v5.6H1681.7z"/>
			<path class="st2" d="M1685.2,516.5v-9.4h7.9v1.9h-6.3v5.6h4.8v1.9H1685.2z M1685.2,524v-1.9h6.4v1.9H1685.2z M1691.6,522.2v-5.6
				h1.6v5.6H1691.6z"/>
		</g>
		<g>
			<path class="st2" d="M273.6,870.2V857h1.6v7.5h1.6v3.8h-1.6v1.9H273.6z M275.2,857v-1.9h4.8v1.9H275.2z M275.2,872v-1.9h4.8v1.9
				H275.2z M276.7,864.5v-1.9h1.6v1.9H276.7z M279.9,870.2v-7.5h-1.6v-3.8h1.6V857h1.6v13.1H279.9z"/>
			<path class="st2" d="M283.4,870.2V857h1.6v13.1H283.4z M285,857v-1.9h6.4v1.9H285z M285,872v-1.9h6.4v1.9H285z"/>
			<path class="st2" d="M294.8,872v-15h-1.6v-1.9h3.2V872H294.8z"/>
		</g>
		<g>
			<path class="st2" d="M621.6,174.2V161h1.6v7.5h1.6v3.8h-1.6v1.9H621.6z M623.2,161v-1.9h4.8v1.9H623.2z M623.2,176v-1.9h4.8v1.9
				H623.2z M624.7,168.5v-1.9h1.6v1.9H624.7z M627.9,174.2v-7.5h-1.6v-3.8h1.6V161h1.6v13.1H627.9z"/>
			<path class="st2" d="M631.4,176v-7.5h1.6v-5.6h1.6v5.6h1.6v-5.6h1.6v5.6h1.6v7.5h-1.6v-5.6H633v5.6H631.4z M634.6,162.9v-3.8h1.6
				v3.8H634.6z"/>
			<path class="st2" d="M641.2,161v-1.9h6.4v1.9H641.2z M641.2,176v-7.5h1.6v5.6h6.4v1.9H641.2z M642.8,168.5v-1.9h4.8v1.9H642.8z
				 M647.6,166.7V161h1.6v5.6H647.6z"/>
		</g>
		<g>
			<path class="st2" d="M621.6,522.2V509h1.6v7.5h1.6v3.8h-1.6v1.9H621.6z M623.2,509v-1.9h4.8v1.9H623.2z M623.2,524v-1.9h4.8v1.9
				H623.2z M624.7,516.5v-1.9h1.6v1.9H624.7z M627.9,522.2v-7.5h-1.6v-3.8h1.6V509h1.6v13.1H627.9z"/>
			<path class="st2" d="M631.4,524v-16.9h6.4v1.9H633v5.6h4.8v1.9H633v5.6h4.8v1.9H631.4z M637.7,514.7V509h1.6v5.6H637.7z
				 M637.7,522.2v-5.6h1.6v5.6H637.7z"/>
			<path class="st2" d="M641.2,509v-1.9h6.4v1.9H641.2z M641.2,524v-7.5h1.6v5.6h6.4v1.9H641.2z M642.8,516.5v-1.9h4.8v1.9H642.8z
				 M647.6,514.7V509h1.6v5.6H647.6z"/>
		</g>
		<g>
			<path class="st2" d="M621.6,870.2V857h1.6v7.5h1.6v3.8h-1.6v1.9H621.6z M623.2,857v-1.9h4.8v1.9H623.2z M623.2,872v-1.9h4.8v1.9
				H623.2z M624.7,864.5v-1.9h1.6v1.9H624.7z M627.9,870.2v-7.5h-1.6v-3.8h1.6V857h1.6v13.1H627.9z"/>
			<path class="st2" d="M631.4,870.2V857h1.6v13.1H631.4z M633,857v-1.9h6.4v1.9H633z M633,872v-1.9h6.4v1.9H633z"/>
			<path class="st2" d="M641.2,857v-1.9h6.4v1.9H641.2z M641.2,872v-7.5h1.6v5.6h6.4v1.9H641.2z M642.8,864.5v-1.9h4.8v1.9H642.8z
				 M647.6,862.7V857h1.6v5.6H647.6z"/>
		</g>
		<g>
			<path class="st2" d="M969.6,870.2V857h1.6v7.5h1.6v3.8h-1.6v1.9H969.6z M971.2,857v-1.9h4.8v1.9H971.2z M971.2,872v-1.9h4.8v1.9
				H971.2z M972.7,864.5v-1.9h1.6v1.9H972.7z M975.9,870.2v-7.5h-1.6v-3.8h1.6V857h1.6v13.1H975.9z"/>
			<path class="st2" d="M979.4,870.2V857h1.6v13.1H979.4z M981,857v-1.9h6.3v1.9H981z M981,872v-1.9h6.3v1.9H981z"/>
			<path class="st2" d="M989.2,857v-1.9h6.4v1.9H989.2z M989.2,872v-1.9h6.4v1.9H989.2z M990.8,864.5v-1.9h4.8v1.9H990.8z
				 M995.6,862.7V857h1.6v5.6H995.6z M995.6,870.2v-5.6h1.6v5.6H995.6z"/>
		</g>
		<g>
			<path class="st2" d="M1317.6,174.2V161h1.6v7.5h1.6v3.8h-1.6v1.9H1317.6z M1319.2,161v-1.9h4.8v1.9H1319.2z M1319.2,176v-1.9h4.8
				v1.9H1319.2z M1320.7,168.5v-1.9h1.6v1.9H1320.7z M1323.9,174.2v-7.5h-1.6v-3.8h1.6V161h1.6v13.1H1323.9z"/>
			<path class="st2" d="M1327.4,176v-7.5h1.6v-5.6h1.6v5.6h1.6v-5.6h1.6v5.6h1.6v7.5h-1.6v-5.6h-4.8v5.6H1327.4z M1330.6,162.9v-3.8
				h1.6v3.8H1330.6z"/>
			<path class="st2" d="M1337.2,168.5v-9.4h1.6v9.4H1337.2z M1343.6,176v-5.6h-4.8v-1.9h4.8v-9.4h1.6v9.4h1.6v1.9h-1.6v5.6H1343.6z"
				/>
		</g>
		<g>
			<path class="st2" d="M1317.6,522.2V509h1.6v7.5h1.6v3.8h-1.6v1.9H1317.6z M1319.2,509v-1.9h4.8v1.9H1319.2z M1319.2,524v-1.9h4.8
				v1.9H1319.2z M1320.7,516.5v-1.9h1.6v1.9H1320.7z M1323.9,522.2v-7.5h-1.6v-3.8h1.6V509h1.6v13.1H1323.9z"/>
			<path class="st2" d="M1327.4,524v-16.9h6.4v1.9h-4.8v5.6h4.8v1.9h-4.8v5.6h4.8v1.9H1327.4z M1333.7,514.7V509h1.6v5.6H1333.7z
				 M1333.7,522.2v-5.6h1.6v5.6H1333.7z"/>
			<path class="st2" d="M1337.2,516.5v-9.4h1.6v9.4H1337.2z M1343.6,524v-5.6h-4.8v-1.9h4.8v-9.4h1.6v9.4h1.6v1.9h-1.6v5.6H1343.6z"
				/>
		</g>
		<g>
			<path class="st2" d="M1317.6,870.2V857h1.6v7.5h1.6v3.8h-1.6v1.9H1317.6z M1319.2,857v-1.9h4.8v1.9H1319.2z M1319.2,872v-1.9h4.8
				v1.9H1319.2z M1320.7,864.5v-1.9h1.6v1.9H1320.7z M1323.9,870.2v-7.5h-1.6v-3.8h1.6V857h1.6v13.1H1323.9z"/>
			<path class="st2" d="M1327.4,870.2V857h1.6v13.1H1327.4z M1329,857v-1.9h6.3v1.9H1329z M1329,872v-1.9h6.3v1.9H1329z"/>
			<path class="st2" d="M1337.2,864.5v-9.4h1.6v9.4H1337.2z M1343.6,872v-5.6h-4.8v-1.9h4.8v-9.4h1.6v9.4h1.6v1.9h-1.6v5.6H1343.6z"
				/>
		</g>
		<g>
			<g>
				<path class="st2" d="M1665.6,870.2V857h1.6v7.5h1.6v3.8h-1.6v1.9H1665.6z M1667.2,857v-1.9h4.8v1.9H1667.2z M1667.2,872v-1.9
					h4.8v1.9H1667.2z M1668.7,864.5v-1.9h1.6v1.9H1668.7z M1671.9,870.2v-7.5h-1.6v-3.8h1.6V857h1.6v13.1H1671.9z"/>
				<path class="st2" d="M1675.4,870.2V857h1.6v13.1H1675.4z M1677,857v-1.9h6.3v1.9H1677z M1677,872v-1.9h6.3v1.9H1677z"/>
				<path class="st2" d="M1685.2,864.5v-9.4h7.9v1.9h-6.3v5.6h4.8v1.9H1685.2z M1685.2,872v-1.9h6.4v1.9H1685.2z M1691.6,870.2v-5.6
					h1.6v5.6H1691.6z"/>
			</g>
		</g>
	</g>
</g>
<g id="Layer_3">
	<rect x="958.5" y="104.5" class="st3" width="3" height="441.9"/>
	<g>
		
			<rect x="1182.9" y="427.8" transform="matrix(0.5736 -0.8192 0.8192 0.5736 -70.6564 1269.9285)" class="st3" width="3" height="550"/>
		
			<rect x="734.1" y="427.8" transform="matrix(-0.5736 -0.8192 0.8192 -0.5736 581.7574 1708.502)" class="st3" width="3" height="550"/>
	</g>
</g>
<g id="crosses" class="st0">
	<g class="st1">
		<g>
			<rect x="957.8" y="176" class="st4" width="4.3" height="43.5"/>
			
				<rect x="957.8" y="176" transform="matrix(4.516127e-11 -1 1 4.516127e-11 762.2227 1157.7773)" class="st4" width="4.3" height="43.5"/>
		</g>
		<g>
			<rect x="1653.8" y="176" class="st4" width="4.3" height="43.5"/>
			
				<rect x="1653.8" y="176" transform="matrix(4.516127e-11 -1 1 4.516127e-11 1458.2227 1853.7773)" class="st4" width="4.3" height="43.5"/>
		</g>
		<g>
			<rect x="957.8" y="524" class="st4" width="4.3" height="43.5"/>
			
				<rect x="957.8" y="524" transform="matrix(4.516127e-11 -1 1 4.516127e-11 414.2227 1505.7773)" class="st4" width="4.3" height="43.5"/>
		</g>
		<g>
			<rect x="1653.8" y="524" class="st4" width="4.3" height="43.5"/>
			
				<rect x="1653.8" y="524" transform="matrix(4.516127e-11 -1 1 4.516127e-11 1110.2227 2201.7773)" class="st4" width="4.3" height="43.5"/>
		</g>
		<g>
			<rect x="609.8" y="176" class="st4" width="4.3" height="43.5"/>
			
				<rect x="609.8" y="176" transform="matrix(4.495255e-11 -1 1 4.495255e-11 414.2227 809.7773)" class="st4" width="4.3" height="43.5"/>
		</g>
		<g>
			<rect x="609.8" y="524" class="st4" width="4.3" height="43.5"/>
			
				<rect x="609.8" y="524" transform="matrix(4.495255e-11 -1 1 4.495255e-11 66.2227 1157.7773)" class="st4" width="4.3" height="43.5"/>
		</g>
		<g>
			<rect x="609.8" y="872" class="st4" width="4.3" height="43.5"/>
			
				<rect x="609.8" y="872" transform="matrix(4.495255e-11 -1 1 4.495255e-11 -281.7773 1505.7773)" class="st4" width="4.3" height="43.5"/>
		</g>
		<g>
			<rect x="957.8" y="872" class="st4" width="4.3" height="43.5"/>
			
				<rect x="957.8" y="872" transform="matrix(4.516127e-11 -1 1 4.516127e-11 66.2227 1853.7773)" class="st4" width="4.3" height="43.5"/>
		</g>
		<g>
			<rect x="1305.8" y="176" class="st4" width="4.3" height="43.5"/>
			
				<rect x="1305.8" y="176" transform="matrix(4.516127e-11 -1 1 4.516127e-11 1110.2227 1505.7773)" class="st4" width="4.3" height="43.5"/>
		</g>
		<g>
			<rect x="1305.8" y="524" class="st4" width="4.3" height="43.5"/>
			
				<rect x="1305.8" y="524" transform="matrix(4.516127e-11 -1 1 4.516127e-11 762.2227 1853.7773)" class="st4" width="4.3" height="43.5"/>
		</g>
		<g>
			<rect x="1305.8" y="872" class="st4" width="4.3" height="43.5"/>
			
				<rect x="1305.8" y="872" transform="matrix(4.516127e-11 -1 1 4.516127e-11 414.2227 2201.7773)" class="st4" width="4.3" height="43.5"/>
		</g>
		<g>
			<rect x="1653.8" y="872" class="st4" width="4.3" height="43.5"/>
			
				<rect x="1653.8" y="872" transform="matrix(4.516127e-11 -1 1 4.516127e-11 762.2227 2549.7773)" class="st4" width="4.3" height="43.5"/>
		</g>
		<g>
			<rect x="261.8" y="176" class="st4" width="4.3" height="43.5"/>
			
				<rect x="261.8" y="176" transform="matrix(4.495255e-11 -1 1 4.495255e-11 66.2227 461.7773)" class="st4" width="4.3" height="43.5"/>
		</g>
		<g>
			<rect x="261.8" y="524" class="st4" width="4.3" height="43.5"/>
			
				<rect x="261.8" y="524" transform="matrix(4.495255e-11 -1 1 4.495255e-11 -281.7773 809.7773)" class="st4" width="4.3" height="43.5"/>
		</g>
		<g>
			<rect x="261.8" y="872" class="st4" width="4.3" height="43.5"/>
			
				<rect x="261.8" y="872" transform="matrix(4.495255e-11 -1 1 4.495255e-11 -629.7773 1157.7773)" class="st4" width="4.3" height="43.5"/>
		</g>
	</g>
</g>
</svg>
