<?xml version="1.0" encoding="utf-8"?>
<!-- Generator: Adobe Illustrator 22.1.0, SVG Export Plug-In . SVG Version: 6.00 Build 0)  -->
<svg version="1.1" xmlns="http://www.w3.org/2000/svg" xmlns:xlink="http://www.w3.org/1999/xlink" x="0px" y="0px"
	 viewBox="0 0 727.9 626.5" style="enable-background:new 0 0 727.9 626.5;" xml:space="preserve">
<style type="text/css">
	.st0{fill:none;stroke:#272525;stroke-width:3;stroke-miterlimit:10;}
	.st1{stroke:#272525;stroke-width:3;stroke-miterlimit:10;}
	.st2{stroke:#272525;stroke-width:3;}
	.st3{fill:#FFFFFF;stroke:#272525;stroke-width:3;}
	.st4{fill:none;stroke:#272525;stroke-width:3;}
	.st5{fill:#CB2429;}
	.st6{display:none;}
	.st7{display:inline;}
	.st8{fill:#CB2529;}
	.st9{fill:#000100;}
	.st10{fill:#CB2429;stroke:#CB2429;stroke-width:5;stroke-linecap:round;}
	.st11{fill:none;stroke:#CB2429;stroke-width:5;stroke-linecap:round;}
	.st12{fill:none;stroke:#000000;stroke-width:4;stroke-linecap:round;}
	.st13{fill:none;stroke:#000000;stroke-width:4;stroke-linecap:round;stroke-miterlimit:10;}
</style>
<g id="Layer_1">
	<polygon class="st0" points="184.8,121.2 184.8,121.2 121.2,184.8 121.2,184.8 	"/>
	<circle class="st1" cx="45" cy="45" r="18"/>
	<rect x="153" class="st0" width="0" height="45"/>
	<circle class="st2" cx="153" cy="45" r="18"/>
	<rect x="261" class="st0" width="0" height="45"/>
	<circle class="st3" cx="261" cy="45" r="18"/>
	<polygon class="st0" points="261,44.5 261,44.5 229.2,12.7 229.2,12.7 	"/>
	<circle class="st2" cx="261" cy="44.5" r="18"/>
	<rect x="369" class="st0" width="0" height="45"/>
	<circle class="st3" cx="369" cy="45" r="18"/>
	<polygon class="st0" points="369,44.5 369,44.5 337.2,12.7 337.2,12.7 	"/>
	<circle class="st3" cx="369" cy="44.5" r="18"/>
	<polygon class="st0" points="369,44.5 369,44.5 324,44.5 324,44.5 	"/>
	<circle class="st2" cx="369" cy="44.5" r="18"/>
	<rect x="477" class="st0" width="0" height="45"/>
	<circle class="st3" cx="477" cy="45" r="18"/>
	<polygon class="st0" points="477,44.5 477,44.5 445.2,12.7 445.2,12.7 	"/>
	<circle class="st3" cx="477" cy="44.5" r="18"/>
	<polygon class="st0" points="477,44.5 477,44.5 432,44.5 432,44.5 	"/>
	<circle class="st3" cx="477" cy="44.5" r="18"/>
	<polygon class="st0" points="477,44.5 477,44.5 445.2,76.3 445.2,76.3 	"/>
	<circle class="st2" cx="477" cy="44.5" r="18"/>
	<rect x="585" class="st0" width="0" height="45"/>
	<circle class="st3" cx="585" cy="45" r="18"/>
	<polygon class="st0" points="585,44.5 585,44.5 553.2,12.7 553.2,12.7 	"/>
	<circle class="st3" cx="585" cy="44.5" r="18"/>
	<polygon class="st0" points="585,44.5 585,44.5 540,44.5 540,44.5 	"/>
	<circle class="st3" cx="585" cy="44.5" r="18"/>
	<polygon class="st0" points="585,44.5 585,44.5 553.2,76.3 553.2,76.3 	"/>
	<circle class="st3" cx="585" cy="44.5" r="18"/>
	<rect x="585" y="44.5" class="st0" width="0" height="45"/>
	<circle class="st2" cx="585" cy="44.5" r="18"/>
	<rect x="693" class="st0" width="0" height="45"/>
	<circle class="st3" cx="693" cy="45" r="18"/>
	<polygon class="st0" points="693,44.5 693,44.5 661.2,12.7 661.2,12.7 	"/>
	<circle class="st3" cx="693" cy="44.5" r="18"/>
	<polygon class="st0" points="693,44.5 693,44.5 648,44.5 648,44.5 	"/>
	<circle class="st3" cx="693" cy="44.5" r="18"/>
	<polygon class="st0" points="693,44.5 693,44.5 661.2,76.3 661.2,76.3 	"/>
	<circle class="st3" cx="693" cy="44.5" r="18"/>
	<rect x="693" y="44.5" class="st0" width="0" height="45"/>
	<circle class="st3" cx="693" cy="44.5" r="18"/>
	<polygon class="st0" points="693,44.5 693,44.5 724.8,76.3 724.8,76.3 	"/>
	<circle class="st2" cx="693" cy="44.5" r="18"/>
	<rect x="45" y="108" class="st0" width="0" height="45"/>
	<circle class="st3" cx="45" cy="153" r="18"/>
	<polygon class="st0" points="45,152.5 45,152.5 13.2,120.7 13.2,120.7 	"/>
	<circle class="st3" cx="45" cy="152.5" r="18"/>
	<polygon class="st0" points="45,152.5 45,152.5 0,152.5 0,152.5 	"/>
	<circle class="st3" cx="45" cy="152.5" r="18"/>
	<polygon class="st0" points="45,152.5 45,152.5 13.2,184.3 13.2,184.3 	"/>
	<circle class="st3" cx="45" cy="152.5" r="18"/>
	<rect x="45" y="152.5" class="st0" width="0" height="45"/>
	<circle class="st3" cx="45" cy="152.5" r="18"/>
	<polygon class="st0" points="45,152.5 45,152.5 76.8,184.3 76.8,184.3 	"/>
	<circle class="st3" cx="45" cy="152.5" r="18"/>
	<circle class="st3" cx="45" cy="152.5" r="18"/>
	<circle class="st3" cx="45" cy="152.5" r="18"/>
	<polygon class="st0" points="45,153 45,153 90,153 90,153 	"/>
	<circle class="st2" cx="45" cy="153" r="18"/>
	<rect x="153" y="108" class="st0" width="0" height="45"/>
	<circle class="st3" cx="153" cy="153" r="18"/>
	<polygon class="st0" points="153,152.5 153,152.5 121.2,120.7 121.2,120.7 	"/>
	<circle class="st3" cx="153" cy="152.5" r="18"/>
	<polygon class="st0" points="153,152.5 153,152.5 108,152.5 108,152.5 	"/>
	<circle class="st3" cx="153" cy="152.5" r="18"/>
	<circle class="st3" cx="153" cy="152.5" r="18"/>
	<rect x="153" y="152.5" class="st0" width="0" height="45"/>
	<circle class="st3" cx="153" cy="152.5" r="18"/>
	<polygon class="st0" points="153,152.5 153,152.5 184.8,184.3 184.8,184.3 	"/>
	<circle class="st3" cx="153" cy="152.5" r="18"/>
	<circle class="st3" cx="153" cy="152.5" r="18"/>
	<circle class="st3" cx="153" cy="152.5" r="18"/>
	<polygon class="st0" points="153,153 153,153 198,153 198,153 	"/>
	<circle class="st2" cx="153" cy="153" r="18"/>
	<polygon class="st1" points="270.8,137.7 261,116.7 251.2,137.7 	"/>
	<polygon class="st1" points="384.9,157.3 378.8,137.7 369,116.7 359.2,137.7 	"/>
	<polygon class="st1" points="492.9,157.3 508.8,141 486.8,137.7 477,116.7 467.2,137.7 	"/>
	<polygon class="st1" points="153,277.5 172.7,288.4 168.9,265.3 184.8,249 162.8,245.7 153,224.7 143.2,245.7 137.1,265.3 
		133.3,288.4 	"/>
	<polygon class="st2" points="261,277.5 280.7,288.4 276.9,265.3 292.8,249 270.8,245.7 261,224.7 251.2,245.7 229.2,249 
		245.1,265.3 241.3,288.4 	"/>
	<polygon class="st2" points="369,385.5 388.7,396.4 384.9,373.3 400.8,357 378.8,353.7 369,332.7 359.2,353.7 337.2,357 
		353.1,373.3 349.3,396.4 	"/>
	<polygon class="st2" points="477,385.5 496.7,396.4 492.9,373.3 	"/>
	<polygon class="st2" points="477,493.5 496.7,504.4 492.9,481.3 508.8,465 486.8,461.7 477,440.7 467.2,461.7 445.2,465 
		461.1,481.3 457.3,504.4 	"/>
	<polygon class="st2" points="369,493.5 388.7,504.4 384.9,481.3 378.8,461.7 369,440.7 359.2,461.7 337.2,465 353.1,481.3 
		349.3,504.4 	"/>
	<polygon class="st2" points="261,493.5 280.7,504.4 276.9,481.3 261,440.7 251.2,461.7 229.2,465 245.1,481.3 241.3,504.4 	"/>
	<polygon class="st2" points="153,493.5 172.7,504.4 168.9,481.3 143.2,461.7 121.2,465 137.1,481.3 133.3,504.4 	"/>
	<polygon class="st2" points="45,493.5 64.7,504.4 60.9,481.3 13.2,465 29.1,481.3 25.3,504.4 	"/>
	<polygon class="st2" points="693,385.5 712.7,396.4 708.9,373.3 677.1,373.3 673.3,396.4 	"/>
	<polygon class="st2" points="585,385.5 604.7,396.4 600.9,373.3 569.1,373.3 	"/>
	<polygon class="st1" points="384.9,265.3 400.8,249 378.8,245.7 	"/>
	<polygon class="st1" points="604.7,180.4 600.9,157.3 616.8,141 594.8,137.7 585,116.7 575.2,137.7 	"/>
	<polygon class="st1" points="693,169.5 712.7,180.4 708.9,157.3 724.8,141 702.8,137.7 693,116.7 683.2,137.7 	"/>
	<polygon class="st1" points="45,277.5 64.7,288.4 60.9,265.3 76.8,249 54.8,245.7 45,224.7 35.2,245.7 25.3,288.4 	"/>
	<polygon class="st1" points="477,277.5 492.9,265.3 508.8,249 486.8,245.7 	"/>
	<polygon class="st1" points="153,385.5 172.7,396.4 168.9,373.3 184.8,357 162.8,353.7 121.2,357 137.1,373.3 133.3,396.4 	"/>
	<polygon class="st1" points="261,385.5 280.7,396.4 276.9,373.3 292.8,357 270.8,353.7 251.2,353.7 229.2,357 245.1,373.3 
		241.3,396.4 	"/>
	<polygon class="st1" points="693,277.5 712.7,288.4 708.9,265.3 724.8,249 702.8,245.7 673.3,288.4 	"/>
	<polygon class="st1" points="585,277.5 604.7,288.4 600.9,265.3 616.8,249 594.8,245.7 	"/>
	<polygon class="st1" points="45,385.5 64.7,396.4 60.9,373.3 76.8,357 54.8,353.7 29.1,373.3 25.3,396.4 	"/>
	<line class="st3" x1="560.7" y1="437" x2="613.1" y2="437"/>
	<path class="st3" d="M586.9,477"/>
	<path class="st3" d="M721.1,437"/>
	<polygon class="st4" points="154.9,585 128.7,545 181.1,545 	"/>
	<line class="st3" x1="154.9" y1="585" x2="154.9" y2="625"/>
	<line class="st3" x1="46.9" y1="585" x2="46.9" y2="625"/>
	<line class="st3" x1="289.1" y1="625" x2="289.1" y2="545"/>
	<polyline class="st2" points="397.1,545 397.1,625 370.9,625 370.9,585 	"/>
	<polyline class="st2" points="505.1,545 505.1,625 478.9,625 478.9,585 	"/>
	<polygon class="st4" points="262.9,585 236.7,545 289.1,545 	"/>
	<line class="st3" x1="262.9" y1="585" x2="262.9" y2="625"/>
	<polygon class="st4" points="370.9,585 344.7,545 397.1,545 	"/>
	<polygon class="st4" points="478.9,585 452.7,545 505.1,545 	"/>
	<polyline class="st4" points="478.9,585 478.9,625 452.7,625 	"/>
	<polyline class="st2" points="613.1,545 613.1,625 586.9,625 586.9,585 	"/>
	<polygon class="st4" points="586.9,585 560.7,545 613.1,545 	"/>
	<polyline class="st4" points="586.9,585 586.9,625 560.7,625 560.7,545 	"/>
	<polyline class="st4" points="668.7,437 721.1,437 694.9,477 	"/>
	<path class="st3" d="M73.1,545"/>
	<polyline class="st4" points="20.7,545 73.1,545 46.9,585 	"/>
	<path class="st5" d="M693,611.9l27-35.1c0,0-1.3-20.9-14-18.8c-12.8,2.1-12.6,18.8-12.6,18.8h-0.8c0,0,0.2-16.7-12.6-18.8
		s-14,18.8-14,18.8l26.2,35.1H693z"/>
</g>
<g id="Layer_2" class="st6">
	<g class="st7">
		<rect x="69.6" y="53.3" class="st8" width="28.6" height="12.9"/>
		<rect x="230.6" y="53.3" class="st8" width="28.6" height="12.9"/>
		<rect x="230.6" y="21.2" class="st8" width="12.4" height="44.9"/>
		<rect x="391.6" y="53.3" class="st8" width="28.6" height="12.9"/>
		<rect x="391.6" y="21.2" class="st8" width="12.4" height="44.9"/>
		<rect x="391.6" y="8.8" class="st8" width="41" height="12.9"/>
		<rect x="552.7" y="53.3" class="st8" width="28.6" height="12.9"/>
		<rect x="552.7" y="21.2" class="st8" width="12.4" height="44.9"/>
		<rect x="552.7" y="8.8" class="st8" width="41" height="12.9"/>
		<rect x="593.3" y="0.6" class="st8" width="24.1" height="11.2"/>
		<rect x="69.6" y="214.3" class="st8" width="28.6" height="12.9"/>
		<rect x="69.6" y="182.2" class="st8" width="12.4" height="44.9"/>
		<rect x="69.6" y="169.8" class="st8" width="41" height="12.9"/>
		
			<rect x="134.3" y="169.8" transform="matrix(-1 -4.484381e-11 4.484381e-11 -1 309.5773 352.4788)" class="st8" width="41" height="12.9"/>
		<rect x="110.2" y="161.6" class="st8" width="24.1" height="11.2"/>
		<rect x="230.6" y="214.3" class="st8" width="28.6" height="12.9"/>
		<rect x="230.6" y="182.2" class="st8" width="12.4" height="44.9"/>
		<rect x="230.6" y="169.8" class="st8" width="41" height="12.9"/>
		
			<rect x="323.9" y="182.2" transform="matrix(-1 -4.456758e-11 4.456758e-11 -1 660.1919 409.3661)" class="st8" width="12.4" height="44.9"/>
		
			<rect x="295.3" y="169.8" transform="matrix(-1 -4.484381e-11 4.484381e-11 -1 631.6312 352.4788)" class="st8" width="41" height="12.9"/>
		<rect x="271.2" y="161.6" class="st8" width="24.1" height="11.2"/>
		<rect x="391.6" y="214.3" class="st8" width="28.6" height="12.9"/>
		<rect x="391.6" y="182.2" class="st8" width="12.4" height="44.9"/>
		<rect x="391.6" y="169.8" class="st8" width="41" height="12.9"/>
		
			<rect x="468.8" y="214.3" transform="matrix(-1 -4.493218e-11 4.493218e-11 -1 966.0926 441.4384)" class="st8" width="28.6" height="12.9"/>
		
			<rect x="484.9" y="182.2" transform="matrix(-1 -4.456758e-11 4.456758e-11 -1 982.2458 409.3661)" class="st8" width="12.4" height="44.9"/>
		
			<rect x="456.4" y="169.8" transform="matrix(-1 -4.484381e-11 4.484381e-11 -1 953.6851 352.4788)" class="st8" width="41" height="12.9"/>
		<rect x="432.2" y="161.6" class="st8" width="24.1" height="11.2"/>
		<rect x="552.7" y="214.3" class="st8" width="28.6" height="12.9"/>
		<rect x="552.7" y="182.2" class="st8" width="12.4" height="44.9"/>
		<rect x="552.7" y="169.8" class="st8" width="41" height="12.9"/>
		
			<rect x="629.8" y="214.3" transform="matrix(-1 -4.493218e-11 4.493218e-11 -1 1288.1465 441.4384)" class="st8" width="28.6" height="12.9"/>
		
			<rect x="645.9" y="182.2" transform="matrix(-1 -4.456758e-11 4.456758e-11 -1 1304.2997 409.3661)" class="st8" width="12.4" height="44.9"/>
		
			<rect x="617.4" y="169.8" transform="matrix(-1 -4.484381e-11 4.484381e-11 -1 1275.739 352.4788)" class="st8" width="41" height="12.9"/>
		<rect x="593.3" y="161.6" class="st8" width="24.1" height="11.2"/>
		<rect x="593.3" y="172.8" class="st8" width="24.1" height="24.1"/>
		<rect x="69.6" y="375.3" class="st8" width="28.6" height="12.9"/>
		<rect x="69.6" y="343.2" class="st8" width="12.4" height="44.9"/>
		<rect x="69.6" y="330.8" class="st8" width="41" height="12.9"/>
		
			<rect x="146.7" y="375.3" transform="matrix(-1 -4.483670e-11 4.483670e-11 -1 321.9848 763.4922)" class="st8" width="28.6" height="12.9"/>
		
			<rect x="162.9" y="343.2" transform="matrix(-1 -4.442103e-11 4.442103e-11 -1 338.138 731.42)" class="st8" width="12.4" height="44.9"/>
		
			<rect x="134.3" y="330.8" transform="matrix(-1 -4.493262e-11 4.493262e-11 -1 309.5773 674.5327)" class="st8" width="41" height="12.9"/>
		<rect x="110.2" y="322.6" class="st8" width="24.1" height="11.2"/>
		<rect x="110.2" y="333.9" class="st8" width="24.1" height="24.1"/>
		<rect x="113.8" y="358" class="st8" width="16.9" height="7.7"/>
		<rect x="230.6" y="375.3" class="st8" width="28.6" height="12.9"/>
		<rect x="230.6" y="343.2" class="st8" width="12.4" height="44.9"/>
		<rect x="230.6" y="330.8" class="st8" width="41" height="12.9"/>
		
			<rect x="307.7" y="375.3" transform="matrix(-1 -4.483670e-11 4.483670e-11 -1 644.0387 763.4922)" class="st8" width="28.6" height="12.9"/>
		
			<rect x="323.9" y="343.2" transform="matrix(-1 -4.442103e-11 4.442103e-11 -1 660.1919 731.42)" class="st8" width="12.4" height="44.9"/>
		
			<rect x="295.3" y="330.8" transform="matrix(-1 -4.493262e-11 4.493262e-11 -1 631.6312 674.5327)" class="st8" width="41" height="12.9"/>
		<rect x="271.2" y="322.6" class="st8" width="24.1" height="11.2"/>
		<rect x="271.2" y="333.9" class="st8" width="24.1" height="24.1"/>
		<rect x="274.8" y="358" class="st8" width="16.9" height="7.7"/>
		<rect x="271.2" y="365.7" class="st8" width="24.1" height="34.3"/>
		<rect x="391.6" y="375.3" class="st8" width="28.6" height="12.9"/>
		<rect x="391.6" y="343.2" class="st8" width="12.4" height="44.9"/>
		<rect x="391.6" y="330.8" class="st8" width="41" height="12.9"/>
		
			<rect x="468.8" y="375.3" transform="matrix(-1 -4.490021e-11 4.490021e-11 -1 966.0874 763.4949)" class="st8" width="28.6" height="12.9"/>
		
			<rect x="484.9" y="343.2" transform="matrix(-1 -4.500767e-11 4.500767e-11 -1 982.2406 731.4226)" class="st8" width="12.4" height="44.9"/>
		
			<rect x="456.4" y="330.8" transform="matrix(-1 -4.484381e-11 4.484381e-11 -1 953.6799 674.5353)" class="st8" width="41" height="12.9"/>
		<rect x="432.2" y="322.6" class="st8" width="24.1" height="11.2"/>
		<rect x="432.2" y="333.9" class="st8" width="24.1" height="24.1"/>
		<rect x="435.9" y="358" class="st8" width="16.9" height="7.7"/>
		<rect x="435.9" y="399" class="st8" width="16.9" height="6.6"/>
		<rect x="432.2" y="365.7" class="st8" width="24.1" height="34.3"/>
		<rect x="552.7" y="375.3" class="st8" width="28.6" height="12.9"/>
		<rect x="552.7" y="343.2" class="st8" width="12.4" height="44.9"/>
		<rect x="552.7" y="330.8" class="st8" width="41" height="12.9"/>
		
			<rect x="629.8" y="375.3" transform="matrix(-1 -4.490021e-11 4.490021e-11 -1 1288.1414 763.4949)" class="st8" width="28.6" height="12.9"/>
		
			<rect x="645.9" y="343.2" transform="matrix(-1 -4.500767e-11 4.500767e-11 -1 1304.2946 731.4226)" class="st8" width="12.4" height="44.9"/>
		
			<rect x="617.4" y="330.8" transform="matrix(-1 -4.484381e-11 4.484381e-11 -1 1275.7338 674.5353)" class="st8" width="41" height="12.9"/>
		<rect x="593.3" y="322.6" class="st8" width="24.1" height="11.2"/>
		<rect x="593.3" y="333.9" class="st8" width="24.1" height="24.1"/>
		<rect x="596.9" y="358" class="st8" width="16.9" height="7.7"/>
		<rect x="596.9" y="399" class="st8" width="16.9" height="6.6"/>
		<rect x="593.3" y="365.7" class="st8" width="24.1" height="34.3"/>
		<rect x="593.3" y="405.6" class="st8" width="24.1" height="59.3"/>
		<rect x="69.6" y="536.3" class="st8" width="28.6" height="12.9"/>
		<rect x="69.6" y="504.3" class="st8" width="12.4" height="44.9"/>
		<rect x="69.6" y="491.9" class="st8" width="41" height="12.9"/>
		
			<rect x="146.7" y="536.3" transform="matrix(-1 -4.490021e-11 4.490021e-11 -1 321.9848 1085.5461)" class="st8" width="28.6" height="12.9"/>
		
			<rect x="162.9" y="504.3" transform="matrix(-1 -4.471413e-11 4.471413e-11 -1 338.138 1053.4739)" class="st8" width="12.4" height="44.9"/>
		
			<rect x="134.3" y="491.9" transform="matrix(-1 -4.488821e-11 4.488821e-11 -1 309.5773 996.5866)" class="st8" width="41" height="12.9"/>
		<rect x="110.2" y="483.7" class="st8" width="24.1" height="11.2"/>
		<rect x="110.2" y="494.9" class="st8" width="24.1" height="24.1"/>
		<rect x="113.8" y="519" class="st8" width="16.9" height="7.7"/>
		<rect x="113.8" y="560.1" class="st8" width="16.9" height="6.6"/>
		<rect x="110.2" y="526.7" class="st8" width="24.1" height="34.3"/>
		<rect x="110.2" y="566.6" class="st8" width="24.1" height="59.3"/>
		<rect x="102.6" y="578.5" class="st8" width="8" height="10.6"/>
		<rect x="230.6" y="536.3" class="st8" width="28.6" height="12.9"/>
		<rect x="230.6" y="504.3" class="st8" width="12.4" height="44.9"/>
		<rect x="230.6" y="491.9" class="st8" width="41" height="12.9"/>
		
			<rect x="307.7" y="536.3" transform="matrix(-1 -4.490021e-11 4.490021e-11 -1 644.0387 1085.5461)" class="st8" width="28.6" height="12.9"/>
		
			<rect x="323.9" y="504.3" transform="matrix(-1 -4.471413e-11 4.471413e-11 -1 660.1919 1053.4739)" class="st8" width="12.4" height="44.9"/>
		
			<rect x="295.3" y="491.9" transform="matrix(-1 -4.488821e-11 4.488821e-11 -1 631.6312 996.5866)" class="st8" width="41" height="12.9"/>
		<rect x="271.2" y="483.7" class="st8" width="24.1" height="11.2"/>
		<rect x="271.2" y="494.9" class="st8" width="24.1" height="24.1"/>
		<rect x="274.8" y="519" class="st8" width="16.9" height="7.7"/>
		<rect x="274.8" y="560.1" class="st8" width="16.9" height="6.6"/>
		<rect x="271.2" y="526.7" class="st8" width="24.1" height="34.3"/>
		<rect x="271.2" y="566.6" class="st8" width="24.1" height="59.3"/>
		<rect x="263.6" y="578.5" class="st8" width="8" height="10.6"/>
		<rect x="265.8" y="593.8" class="st8" width="5.3" height="7.2"/>
		<rect x="391.6" y="536.3" class="st8" width="28.6" height="12.9"/>
		<rect x="391.6" y="504.3" class="st8" width="12.4" height="44.9"/>
		<rect x="391.6" y="491.9" class="st8" width="41" height="12.9"/>
		
			<rect x="468.8" y="536.3" transform="matrix(-1 -4.490021e-11 4.490021e-11 -1 966.0926 1085.5461)" class="st8" width="28.6" height="12.9"/>
		
			<rect x="484.9" y="504.3" transform="matrix(-1 -4.471413e-11 4.471413e-11 -1 982.2458 1053.4739)" class="st8" width="12.4" height="44.9"/>
		
			<rect x="456.4" y="491.9" transform="matrix(-1 -4.488821e-11 4.488821e-11 -1 953.6851 996.5866)" class="st8" width="41" height="12.9"/>
		<rect x="432.2" y="483.7" class="st8" width="24.1" height="11.2"/>
		<rect x="432.2" y="494.9" class="st8" width="24.1" height="24.1"/>
		<rect x="435.9" y="519" class="st8" width="16.9" height="7.7"/>
		<rect x="435.9" y="560.1" class="st8" width="16.9" height="6.6"/>
		<rect x="432.2" y="526.7" class="st8" width="24.1" height="34.3"/>
		<rect x="432.2" y="566.6" class="st8" width="24.1" height="59.3"/>
		<rect x="424.6" y="578.5" class="st8" width="8" height="10.6"/>
		<rect x="426.8" y="593.8" class="st8" width="5.3" height="7.2"/>
		<rect x="428.6" y="608.8" class="st8" width="3.5" height="8.7"/>
		<rect x="552.7" y="536.3" class="st9" width="28.6" height="12.9"/>
		<rect x="552.7" y="504.3" class="st9" width="12.4" height="44.9"/>
		<rect x="552.7" y="491.9" class="st9" width="41" height="12.9"/>
		
			<rect x="629.8" y="536.3" transform="matrix(-1 -4.490021e-11 4.490021e-11 -1 1288.1533 1085.5438)" class="st9" width="28.6" height="12.9"/>
		
			<rect x="645.9" y="504.3" transform="matrix(-1 -4.530077e-11 4.530077e-11 -1 1304.3065 1053.4716)" class="st9" width="12.4" height="44.9"/>
		
			<rect x="617.4" y="491.9" transform="matrix(-1 -4.475543e-11 4.475543e-11 -1 1275.7458 996.5843)" class="st9" width="41" height="12.9"/>
		<rect x="593.3" y="483.7" class="st9" width="24.1" height="11.2"/>
		<rect x="593.3" y="494.9" class="st9" width="24.1" height="24.1"/>
		<rect x="596.9" y="519" class="st9" width="16.9" height="7.7"/>
		<rect x="596.9" y="560.1" class="st9" width="16.9" height="6.6"/>
		<rect x="593.3" y="526.7" class="st9" width="24.1" height="34.3"/>
		<rect x="593.3" y="566.6" class="st9" width="24.1" height="59.3"/>
		<rect x="585.7" y="578.5" class="st9" width="8" height="10.6"/>
		<rect x="587.9" y="593.8" class="st9" width="5.3" height="7.2"/>
		<rect x="582.5" y="604.7" class="st9" width="7.1" height="16.2"/>
		<rect x="589.6" y="608.8" class="st9" width="3.5" height="8.7"/>
	</g>
</g>
<g id="Layer_3" class="st6">
	<g class="st7">
		<g>
			<polygon class="st10" points="701.5,538.1 629.7,538.1 665.6,505 			"/>
			<line class="st10" x1="597.8" y1="557.7" x2="629.7" y2="538.1"/>
			<line class="st10" x1="612.3" y1="557.7" x2="644.2" y2="538.1"/>
			<line class="st10" x1="612.3" y1="626.4" x2="612.3" y2="591.1"/>
			<line class="st10" x1="655" y1="626.4" x2="655" y2="591.1"/>
			<polyline class="st11" points="688.3,606.8 688.3,571.4 644.2,571.4 644.2,591.1 644.2,606.8 			"/>
			<polygon class="st10" points="686.9,538.1 655,557.7 655,589.1 688.3,569.4 			"/>
			<polyline class="st10" points="633.7,524.6 665.6,505 701.5,538.1 669.6,557.7 			"/>
			<polygon class="st10" points="669.6,557.7 597.8,557.7 633.7,524.6 			"/>
			<rect x="612.3" y="557.7" class="st10" width="42.8" height="33.4"/>
		</g>
		<line class="st12" x1="41" y1="55" x2="41" y2="19.7"/>
		<line class="st12" x1="215.7" y1="0.1" x2="183.8" y2="19.7"/>
		<line class="st12" x1="183.8" y1="55" x2="183.8" y2="19.7"/>
		<line class="st12" x1="358.5" y1="0.1" x2="326.6" y2="19.7"/>
		<line class="st12" x1="326.6" y1="55" x2="326.6" y2="19.7"/>
		<line class="st12" x1="358.5" y1="35.4" x2="358.5" y2="0.1"/>
		<line class="st12" x1="501.4" y1="0.1" x2="469.5" y2="19.7"/>
		<line class="st12" x1="469.5" y1="55" x2="469.5" y2="19.7"/>
		<line class="st12" x1="512.2" y1="55" x2="512.2" y2="19.7"/>
		<line class="st12" x1="501.4" y1="35.4" x2="501.4" y2="0.1"/>
		<line class="st12" x1="644.2" y1="0.1" x2="612.3" y2="19.7"/>
		<line class="st12" x1="655" y1="19.7" x2="686.9" y2="0.1"/>
		<line class="st12" x1="612.3" y1="55" x2="612.3" y2="19.7"/>
		<line class="st12" x1="655" y1="55" x2="655" y2="19.7"/>
		<line class="st12" x1="644.2" y1="35.4" x2="644.2" y2="0.1"/>
		<line class="st12" x1="72.9" y1="142.9" x2="41" y2="162.5"/>
		<line class="st12" x1="83.7" y1="162.5" x2="115.7" y2="142.9"/>
		<line class="st12" x1="41" y1="197.9" x2="41" y2="162.5"/>
		<line class="st12" x1="83.7" y1="197.9" x2="83.7" y2="162.5"/>
		<line class="st12" x1="72.9" y1="178.3" x2="72.9" y2="142.9"/>
		<line class="st12" x1="115.6" y1="178.3" x2="115.6" y2="142.9"/>
		<line class="st13" x1="226.6" y1="162.5" x2="183.8" y2="162.5"/>
		<line class="st12" x1="215.7" y1="142.9" x2="183.8" y2="162.5"/>
		<line class="st12" x1="226.6" y1="162.5" x2="258.5" y2="142.9"/>
		<line class="st12" x1="183.8" y1="197.9" x2="183.8" y2="162.5"/>
		<line class="st12" x1="226.6" y1="197.9" x2="226.6" y2="162.5"/>
		<line class="st12" x1="215.7" y1="178.3" x2="215.7" y2="142.9"/>
		<line class="st12" x1="258.5" y1="178.3" x2="258.5" y2="142.9"/>
		<line class="st12" x1="358.5" y1="142.9" x2="326.6" y2="162.5"/>
		<line class="st12" x1="369.4" y1="162.5" x2="401.3" y2="142.9"/>
		<polyline class="st12" points="326.6,197.9 326.6,162.5 326.6,129.1 		"/>
		<line class="st12" x1="358.5" y1="178.3" x2="358.5" y2="142.9"/>
		<line class="st12" x1="401.3" y1="178.3" x2="401.3" y2="142.9"/>
		<line class="st12" x1="501.4" y1="142.9" x2="469.5" y2="162.5"/>
		<line class="st12" x1="512.2" y1="162.5" x2="544.1" y2="142.9"/>
		<polyline class="st12" points="512.2,197.9 512.2,162.5 469.5,162.5 		"/>
		<line class="st12" x1="501.4" y1="178.3" x2="501.4" y2="142.9"/>
		<line class="st12" x1="544.1" y1="178.3" x2="544.1" y2="142.9"/>
		<rect x="612.3" y="129.1" class="st13" width="42.8" height="33.4"/>
		<line class="st12" x1="644.2" y1="142.9" x2="612.3" y2="162.5"/>
		<line class="st12" x1="655" y1="162.5" x2="686.9" y2="142.9"/>
		<line class="st12" x1="612.3" y1="197.9" x2="612.3" y2="162.5"/>
		<line class="st12" x1="655" y1="197.9" x2="655" y2="162.5"/>
		<line class="st12" x1="644.2" y1="178.3" x2="644.2" y2="142.9"/>
		<line class="st12" x1="686.9" y1="178.3" x2="686.9" y2="142.9"/>
		<rect x="41" y="272" class="st13" width="42.8" height="33.4"/>
		<line class="st12" x1="72.9" y1="285.7" x2="41" y2="305.3"/>
		<line class="st12" x1="83.7" y1="305.3" x2="115.7" y2="285.7"/>
		<line class="st12" x1="41" y1="272" x2="72.9" y2="252.4"/>
		<line class="st12" x1="41" y1="340.7" x2="41" y2="305.3"/>
		<line class="st12" x1="83.7" y1="340.7" x2="83.7" y2="305.3"/>
		<line class="st12" x1="72.9" y1="321.1" x2="72.9" y2="285.7"/>
		<line class="st12" x1="115.6" y1="321.1" x2="115.6" y2="285.7"/>
		<line class="st12" x1="215.7" y1="285.7" x2="215.7" y2="252.4"/>
		<rect x="183.8" y="272" class="st13" width="42.8" height="33.4"/>
		<line class="st12" x1="215.7" y1="285.7" x2="183.8" y2="305.3"/>
		<line class="st12" x1="226.6" y1="305.3" x2="258.5" y2="285.7"/>
		<line class="st12" x1="183.8" y1="272" x2="215.7" y2="252.4"/>
		<line class="st12" x1="183.8" y1="340.7" x2="183.8" y2="305.3"/>
		<line class="st12" x1="226.6" y1="340.7" x2="226.6" y2="305.3"/>
		<line class="st12" x1="215.7" y1="321.1" x2="215.7" y2="285.7"/>
		<line class="st12" x1="258.5" y1="321.1" x2="258.5" y2="285.7"/>
		<rect x="326.6" y="272" class="st13" width="42.8" height="33.4"/>
		<line class="st12" x1="358.5" y1="285.7" x2="326.6" y2="305.3"/>
		<line class="st12" x1="369.4" y1="305.3" x2="401.3" y2="285.7"/>
		<polyline class="st12" points="326.6,272 358.5,252.4 358.5,285.7 358.5,321.1 		"/>
		<line class="st12" x1="326.6" y1="340.7" x2="326.6" y2="305.3"/>
		<line class="st12" x1="369.4" y1="340.7" x2="369.4" y2="305.3"/>
		<polyline class="st12" points="401.3,321.1 401.3,285.7 358.5,285.7 		"/>
		<line class="st12" x1="501.4" y1="285.7" x2="501.4" y2="252.4"/>
		<rect x="469.5" y="272" class="st13" width="42.8" height="33.4"/>
		<line class="st12" x1="501.4" y1="285.7" x2="469.5" y2="305.3"/>
		<line class="st12" x1="512.2" y1="305.3" x2="544.1" y2="285.7"/>
		<polyline class="st12" points="469.5,272 501.4,252.4 544.1,252.4 		"/>
		<line class="st12" x1="469.5" y1="340.7" x2="469.5" y2="305.3"/>
		<line class="st12" x1="512.2" y1="340.7" x2="512.2" y2="305.3"/>
		<polyline class="st12" points="544.1,321.1 544.1,285.7 501.4,285.7 501.4,321.1 		"/>
		<path class="st12" d="M512.2,272"/>
		<rect x="644.2" y="252.4" class="st12" width="42.8" height="33.4"/>
		<rect x="612.3" y="272" class="st13" width="42.8" height="33.4"/>
		<line class="st12" x1="644.2" y1="285.7" x2="612.3" y2="305.3"/>
		<line class="st12" x1="655" y1="305.3" x2="686.9" y2="285.7"/>
		<line class="st12" x1="612.3" y1="272" x2="644.2" y2="252.4"/>
		<line class="st12" x1="612.3" y1="340.7" x2="612.3" y2="305.3"/>
		<line class="st12" x1="655" y1="340.7" x2="655" y2="305.3"/>
		<line class="st12" x1="644.2" y1="321.1" x2="644.2" y2="285.7"/>
		<line class="st12" x1="686.9" y1="321.1" x2="686.9" y2="285.7"/>
		<line class="st12" x1="655" y1="272" x2="686.9" y2="252.4"/>
		<rect x="72.9" y="395.2" class="st12" width="42.8" height="33.4"/>
		<rect x="41" y="414.8" class="st13" width="42.8" height="33.4"/>
		<line class="st13" x1="98.3" y1="414.8" x2="26.5" y2="414.8"/>
		<line class="st12" x1="72.9" y1="428.6" x2="41" y2="448.1"/>
		<line class="st12" x1="83.7" y1="448.1" x2="115.7" y2="428.6"/>
		<line class="st12" x1="41" y1="414.8" x2="72.9" y2="395.2"/>
		<line class="st12" x1="41" y1="483.5" x2="41" y2="448.1"/>
		<line class="st12" x1="83.7" y1="483.5" x2="83.7" y2="448.1"/>
		<line class="st12" x1="72.9" y1="463.9" x2="72.9" y2="428.6"/>
		<line class="st12" x1="115.6" y1="463.9" x2="115.6" y2="428.6"/>
		<line class="st12" x1="83.7" y1="414.8" x2="115.7" y2="395.2"/>
		<rect x="215.7" y="395.2" class="st12" width="42.8" height="33.4"/>
		<rect x="183.8" y="414.8" class="st13" width="42.8" height="33.4"/>
		<line class="st12" x1="215.7" y1="428.6" x2="183.8" y2="448.1"/>
		<line class="st12" x1="226.6" y1="448.1" x2="258.5" y2="428.6"/>
		<line class="st12" x1="183.8" y1="414.8" x2="215.7" y2="395.2"/>
		<line class="st12" x1="183.8" y1="483.5" x2="183.8" y2="448.1"/>
		<line class="st12" x1="226.6" y1="483.5" x2="226.6" y2="448.1"/>
		<line class="st12" x1="215.7" y1="463.9" x2="215.7" y2="428.6"/>
		<line class="st12" x1="258.5" y1="463.9" x2="258.5" y2="428.6"/>
		<line class="st12" x1="226.6" y1="414.8" x2="258.5" y2="395.2"/>
		<rect x="358.5" y="395.2" class="st12" width="42.8" height="33.4"/>
		<rect x="326.6" y="414.8" class="st13" width="42.8" height="33.4"/>
		<polygon class="st13" points="383.9,414.8 312.1,414.8 348,381.6 		"/>
		<line class="st12" x1="358.5" y1="428.6" x2="326.6" y2="448.1"/>
		<line class="st12" x1="369.4" y1="448.1" x2="401.3" y2="428.6"/>
		<line class="st12" x1="326.6" y1="414.8" x2="358.5" y2="395.2"/>
		<line class="st12" x1="326.6" y1="483.5" x2="326.6" y2="448.1"/>
		<line class="st12" x1="369.4" y1="483.5" x2="369.4" y2="448.1"/>
		<line class="st12" x1="358.5" y1="463.9" x2="358.5" y2="428.6"/>
		<line class="st12" x1="401.3" y1="463.9" x2="401.3" y2="428.6"/>
		<line class="st12" x1="369.4" y1="414.8" x2="401.3" y2="395.2"/>
		<rect x="501.4" y="395.2" class="st12" width="42.8" height="33.4"/>
		<rect x="469.5" y="414.8" class="st13" width="42.8" height="33.4"/>
		<polygon class="st13" points="526.7,414.8 454.9,414.8 490.8,381.6 		"/>
		<line class="st12" x1="454.9" y1="414.8" x2="486.8" y2="395.2"/>
		<line class="st12" x1="501.4" y1="428.6" x2="469.5" y2="448.1"/>
		<line class="st12" x1="512.2" y1="448.1" x2="544.1" y2="428.6"/>
		<line class="st12" x1="469.5" y1="414.8" x2="501.4" y2="395.2"/>
		<line class="st12" x1="469.5" y1="483.5" x2="469.5" y2="448.1"/>
		<line class="st12" x1="512.2" y1="483.5" x2="512.2" y2="448.1"/>
		<line class="st12" x1="501.4" y1="463.9" x2="501.4" y2="428.6"/>
		<line class="st12" x1="544.1" y1="463.9" x2="544.1" y2="428.6"/>
		<line class="st12" x1="512.2" y1="414.8" x2="544.1" y2="395.2"/>
		<rect x="644.2" y="395.2" class="st12" width="42.8" height="33.4"/>
		<line class="st12" x1="701.5" y1="395.2" x2="629.7" y2="395.2"/>
		<rect x="612.3" y="414.8" class="st13" width="42.8" height="33.4"/>
		<polygon class="st13" points="669.6,414.8 597.8,414.8 633.7,381.6 		"/>
		<line class="st12" x1="597.8" y1="414.8" x2="629.7" y2="395.2"/>
		<line class="st12" x1="644.2" y1="428.6" x2="612.3" y2="448.1"/>
		<line class="st12" x1="655" y1="448.1" x2="686.9" y2="428.6"/>
		<line class="st12" x1="612.3" y1="414.8" x2="644.2" y2="395.2"/>
		<line class="st12" x1="612.3" y1="483.5" x2="612.3" y2="448.1"/>
		<line class="st12" x1="655" y1="483.5" x2="655" y2="448.1"/>
		<line class="st12" x1="644.2" y1="463.9" x2="644.2" y2="428.6"/>
		<line class="st12" x1="686.9" y1="463.9" x2="686.9" y2="428.6"/>
		<line class="st12" x1="655" y1="414.8" x2="686.9" y2="395.2"/>
		<rect x="72.9" y="538" class="st12" width="42.8" height="33.4"/>
		<line class="st12" x1="130.2" y1="538" x2="58.4" y2="538"/>
		<rect x="41" y="557.6" class="st13" width="42.8" height="33.4"/>
		<polygon class="st13" points="98.3,557.6 26.5,557.6 62.4,524.5 		"/>
		<path class="st12" d="M62.4,524.5"/>
		<line class="st12" x1="98.3" y1="557.6" x2="130.2" y2="538"/>
		<line class="st12" x1="26.5" y1="557.6" x2="58.4" y2="538"/>
		<line class="st12" x1="72.9" y1="571.4" x2="41" y2="591"/>
		<line class="st12" x1="83.7" y1="591" x2="115.7" y2="571.4"/>
		<line class="st12" x1="41" y1="557.6" x2="72.9" y2="538"/>
		<line class="st12" x1="41" y1="626.3" x2="41" y2="591"/>
		<line class="st12" x1="83.7" y1="626.3" x2="83.7" y2="591"/>
		<line class="st12" x1="72.9" y1="606.7" x2="72.9" y2="571.4"/>
		<line class="st12" x1="115.6" y1="606.7" x2="115.6" y2="571.4"/>
		<line class="st12" x1="83.7" y1="557.6" x2="115.7" y2="538"/>
		<rect x="215.7" y="538" class="st12" width="42.8" height="33.4"/>
		<rect x="183.8" y="557.6" class="st13" width="42.8" height="33.4"/>
		<polygon class="st13" points="241.1,557.6 169.3,557.6 205.2,524.5 		"/>
		<path class="st12" d="M205.2,524.5"/>
		<polyline class="st12" points="241.1,557.6 273,538 237.1,504.9 		"/>
		<polyline class="st12" points="169.3,557.6 201.2,538 273,538 		"/>
		<line class="st12" x1="215.7" y1="571.4" x2="183.8" y2="591"/>
		<line class="st12" x1="226.6" y1="591" x2="258.5" y2="571.4"/>
		<line class="st12" x1="183.8" y1="557.6" x2="215.7" y2="538"/>
		<line class="st12" x1="183.8" y1="626.3" x2="183.8" y2="591"/>
		<line class="st12" x1="226.6" y1="626.3" x2="226.6" y2="591"/>
		<line class="st12" x1="215.7" y1="606.7" x2="215.7" y2="571.4"/>
		<line class="st12" x1="258.5" y1="606.7" x2="258.5" y2="571.4"/>
		<line class="st12" x1="226.6" y1="557.6" x2="258.5" y2="538"/>
		<rect x="358.5" y="538" class="st12" width="42.8" height="33.4"/>
		<polygon class="st12" points="415.8,538 344,538 379.9,504.9 		"/>
		<rect x="326.6" y="557.6" class="st13" width="42.8" height="33.4"/>
		<polygon class="st13" points="383.9,557.6 312.1,557.6 348,524.5 		"/>
		<line class="st12" x1="383.9" y1="557.6" x2="415.8" y2="538"/>
		<line class="st12" x1="312.1" y1="557.6" x2="344" y2="538"/>
		<line class="st12" x1="358.5" y1="571.4" x2="326.6" y2="591"/>
		<line class="st12" x1="369.4" y1="591" x2="401.3" y2="571.4"/>
		<line class="st12" x1="326.6" y1="557.6" x2="358.5" y2="538"/>
		<line class="st12" x1="326.6" y1="626.3" x2="326.6" y2="591"/>
		<line class="st12" x1="369.4" y1="626.3" x2="369.4" y2="591"/>
		<line class="st12" x1="358.5" y1="606.7" x2="358.5" y2="571.4"/>
		<line class="st12" x1="401.3" y1="606.7" x2="401.3" y2="571.4"/>
		<line class="st12" x1="369.4" y1="557.6" x2="401.3" y2="538"/>
		<rect x="501.4" y="538" class="st12" width="42.8" height="33.4"/>
		<polygon class="st12" points="558.6,538 486.8,538 522.7,504.9 		"/>
		<rect x="469.5" y="557.6" class="st13" width="42.8" height="33.4"/>
		<polygon class="st13" points="526.7,557.6 454.9,557.6 490.8,524.5 		"/>
		<line class="st12" x1="490.8" y1="524.5" x2="522.7" y2="504.9"/>
		<line class="st12" x1="526.7" y1="557.6" x2="558.6" y2="538"/>
		<line class="st12" x1="454.9" y1="557.6" x2="486.8" y2="538"/>
		<line class="st12" x1="501.4" y1="571.4" x2="469.5" y2="591"/>
		<line class="st12" x1="512.2" y1="591" x2="544.1" y2="571.4"/>
		<line class="st12" x1="469.5" y1="557.6" x2="501.4" y2="538"/>
		<line class="st12" x1="469.5" y1="626.3" x2="469.5" y2="591"/>
		<line class="st12" x1="512.2" y1="626.3" x2="512.2" y2="591"/>
		<line class="st12" x1="501.4" y1="606.7" x2="501.4" y2="571.4"/>
		<line class="st12" x1="544.1" y1="606.7" x2="544.1" y2="571.4"/>
		<line class="st12" x1="512.2" y1="557.6" x2="544.1" y2="538"/>
		<polyline class="st12" points="326.6,162.5 369.4,162.5 369.4,197.9 		"/>
		<polyline class="st12" points="469.5,197.9 469.5,162.5 469.5,129.1 512.2,129.1 		"/>
		<path class="st12" d="M169.3,414.8"/>
		<polyline class="st12" points="241.1,414.8 169.3,414.8 205.2,381.6 		"/>
	</g>
</g>
</svg>
